<?xml version="1.0" standalone="no"?>
<!DOCTYPE svg PUBLIC "-//W3C//DTD SVG 20010904//EN"
 "http://www.w3.org/TR/2001/REC-SVG-20010904/DTD/svg10.dtd">
<svg version="1.0" xmlns="http://www.w3.org/2000/svg"
 width="550.000000pt" height="550.000000pt" viewBox="0 0 550.000000 550.000000"
 preserveAspectRatio="xMidYMid meet">
<metadata>
Created by potrace 1.11, written by Peter Selinger 2001-2013
</metadata>
<g transform="translate(0.000000,550.000000) scale(0.100000,-0.100000)"
fill="#000000" stroke="none">
<path d="M2394 5271 c-27 -12 -77 -60 -156 -147 -64 -71 -243 -271 -398 -444
-156 -173 -318 -353 -360 -400 -406 -448 -902 -1005 -931 -1045 -70 -96 -123
-231 -149 -381 -19 -110 -8 -407 20 -509 20 -73 67 -182 91 -211 7 -8 -4 -40
-35 -100 -67 -132 -89 -238 -83 -394 9 -233 75 -398 212 -535 97 -98 152 -128
345 -188 80 -25 377 -119 660 -210 1780 -570 1631 -526 1699 -507 59 16 86 42
280 279 97 118 259 316 361 440 102 123 239 291 305 371 66 81 271 330 455
554 184 223 350 430 368 459 31 48 33 57 29 112 -3 33 -15 81 -26 107 -49 107
-65 203 -65 373 1 174 12 244 64 396 33 96 37 152 15 206 -19 45 -19 142 0
213 21 76 19 119 -7 170 -63 124 -233 145 -322 40 -51 -62 -93 -265 -81 -397
l7 -71 -129 -159 c-71 -87 -178 -219 -238 -293 -60 -74 -265 -326 -454 -560
-190 -234 -401 -495 -470 -580 -69 -85 -143 -177 -165 -205 -23 -27 -42 -52
-43 -53 -1 -2 -100 26 -220 63 -120 37 -238 73 -263 80 -25 7 -223 68 -440
135 -621 191 -980 301 -1045 321 -348 103 -339 100 -370 134 -63 69 -95 272
-61 389 23 78 39 101 91 126 66 32 130 28 285 -20 74 -23 173 -53 220 -66 47
-14 137 -41 200 -61 63 -19 135 -41 160 -48 25 -7 151 -45 280 -85 129 -39
251 -76 270 -82 53 -14 223 -65 330 -98 450 -138 464 -142 517 -138 62 5 103
33 171 118 55 68 244 293 252 300 5 4 177 206 335 395 33 39 269 318 525 620
256 301 507 598 559 659 51 61 100 125 107 143 33 78 2 177 -69 217 -42 23
-110 42 -342 91 -66 15 -156 35 -200 46 -77 18 -340 78 -1360 308 -99 22 -279
63 -399 91 -121 27 -236 50 -255 50 -20 0 -54 -9 -77 -19z m326 -720 c477
-116 776 -189 894 -217 159 -38 197 -62 182 -117 -10 -37 -164 -206 -203 -222
-72 -30 -74 -30 -808 151 -192 47 -397 97 -455 110 -251 58 -260 74 -124 233
73 86 92 103 132 116 64 20 101 15 382 -54z m1950 -2044 l21 -68 -23 -28 c-13
-16 -91 -111 -174 -212 -286 -346 -358 -435 -698 -849 -187 -228 -358 -437
-380 -465 -23 -27 -43 -52 -46 -55 -3 -3 -43 -51 -89 -107 -46 -57 -91 -103
-100 -103 -9 0 -70 18 -136 39 -202 65 -826 265 -1080 346 -222 71 -578 185
-905 290 -154 50 -194 79 -236 169 -29 63 -48 191 -40 263 7 59 53 173 70 173
6 0 56 -14 111 -31 55 -17 120 -37 145 -44 44 -12 575 -176 830 -255 105 -33
404 -124 850 -260 52 -16 168 -52 258 -80 96 -29 182 -50 209 -50 76 0 127 33
209 135 39 50 165 205 279 345 113 140 248 307 299 370 51 63 173 214 271 335
98 121 208 257 244 302 l66 82 12 -87 c7 -48 22 -118 33 -155z"/>
</g>
</svg>
